<?xml version="1.0" encoding="UTF-8"?>
<svg fill="#000000" width="13px" height="13px" viewBox="0 0 13 13" version="1.1"
    xmlns="http://www.w3.org/2000/svg" xmlns:xlink="http://www.w3.org/1999/xlink">
    <title>形状</title>
    <g id="Askio-v4" stroke="none" stroke-width="1" fill="" fill-rule="evenodd">
        <path
            d="M2.2765625,10 C2.3078125,10 2.3390625,9.996875 2.3703125,9.9921875 L4.9984375,9.53125 C5.0296875,9.525 5.059375,9.5109375 5.08125,9.4875 L11.7046875,2.8640625 C11.765625,2.803125 11.765625,2.7046875 11.7046875,2.64375 L9.1078125,0.0453125 C9.078125,0.015625 9.0390625,0 8.996875,0 C8.9546875,0 8.915625,0.015625 8.8859375,0.0453125 L2.2625,6.66875 C2.2390625,6.6921875 2.225,6.7203125 2.21875,6.7515625 L1.7578125,9.3796875 C1.728125,9.553125 1.78125,9.721875 1.9046875,9.8453125 C2.0078125,9.9453125 2.1375,10 2.2765625,10 L2.2765625,10 Z M3.3296875,7.275 L8.996875,1.609375 L10.1421875,2.7546875 L4.475,8.4203125 L3.0859375,8.665625 L3.3296875,7.275 L3.3296875,7.275 Z M12,11.3125 L0.5,11.3125 C0.2234375,11.3125 0,11.5359375 0,11.8125 L0,12.375 C0,12.44375 0.05625,12.5 0.125,12.5 L12.375,12.5 C12.44375,12.5 12.5,12.44375 12.5,12.375 L12.5,11.8125 C12.5,11.5359375 12.2765625,11.3125 12,11.3125 Z"
            id="形状" fill-rule="nonzero"></path>
    </g>
</svg>