<?xml version="1.0" encoding="UTF-8"?>
<svg width="344px" height="142px" viewBox="0 0 344 142" version="1.1" xmlns="http://www.w3.org/2000/svg" xmlns:xlink="http://www.w3.org/1999/xlink">
    <title>画板</title>
    <g id="画板" stroke="none" stroke-width="1" fill="none" fill-rule="evenodd">
        <g id="编组-6" transform="translate(26.000000, 34.000000)">
            <path d="M113,39.0000989 L113,53.0675956 C113,55.2685089 112.353618,57.3184516 111.240334,59.0379452 C107.670211,67.813402 99.0575842,74 89,74 L87,73.999 L87,68.797312 C91.5660183,68.797312 95.7115953,66.9971891 98.7657589,64.0679156 L87,64.0675956 L87,39.0000989 L113,39.0000989 Z" id="形状结合" fill="#000000"></path>
            <rect id="矩形" fill="#000000" x="201" y="26" width="24" height="48"></rect>
            <rect id="矩形" fill="#000000" x="212" y="10" width="2" height="37"></rect>
            <rect id="矩形" fill="#000000" x="127.435474" y="0" width="24" height="74"></rect>
            <circle id="椭圆形" fill="#000000" cx="263.435474" cy="45" r="28"></circle>
            <path d="M275.435474,61.9340409 C275.435474,61.9009292 275.435474,61.8760865 275.435474,61.8595127 C275.435474,55.3096847 270.062891,50 263.435474,50 C256.808057,50 251.435474,55.3096847 251.435474,61.8595127 C251.435474,61.8996229 251.435474,61.946452 251.435474,62 L275.435474,61.9340409 Z" id="椭圆形" fill="#FFFFFF" transform="translate(263.435474, 56.000000) rotate(180.000000) translate(-263.435474, -56.000000) "></path>
            <polygon id="矩形" fill="#000000" points="164.070835 16.0787634 188.070835 16.0787634 173 37.4081691 191.435474 74.0787634 167.435474 74.0787634 151 45.3230547 150.997578 34.4484976"></polygon>
            <path d="M113,1.00009888 L113,15.0675956 C113,17.2685089 112.353618,19.3184516 111.240334,21.0379452 C107.670211,29.813402 99.0575842,36 89,36 L87,35.999 L87,30.797312 C91.5660183,30.797312 95.7115953,28.9971891 98.7657589,26.0679156 L87,26.0675956 L87,1.00009888 L113,1.00009888 Z" id="形状结合" fill="#E65C41" transform="translate(100.000000, 18.500000) scale(-1, -1) translate(-100.000000, -18.500000) "></path>
            <polygon id="矩形" fill="#030404" points="38.5 2 77 74 0 74"></polygon>
            <circle id="椭圆形" fill="#FFFFFF" cx="39" cy="41" r="14"></circle>
            <circle id="椭圆形" fill="#030404" cx="46.25" cy="43.25" r="5.25"></circle>
            <circle id="椭圆形" fill="#030404" cx="212.88" cy="5.88" r="5.88"></circle>
            <circle id="椭圆形" fill="#E65C41" cx="212.88" cy="5.88" r="2.52"></circle>
        </g>
    </g>
</svg>