<svg width="44px" height="44px" viewBox="0 0 24 18" version="1.1" xmlns="http://www.w3.org/2000/svg" xmlns:xlink="http://www.w3.org/1999/xlink">
    <g id="AMA-UI-V2" stroke="none" stroke-width="1" fill="none" fill-rule="evenodd">
        <path d="M17,0 C20.8659932,-7.10171439e-16 24,3.13400675 24,7 C24,10.8659932 20.8659932,14 17,14 L14.438,14 L8.75,17.25 L8.75,14 L7,14 C3.13400675,14 4.73447626e-16,10.8659932 0,7 C-4.73447626e-16,3.13400675 3.13400675,7.10171439e-16 7,0 L17,0 Z M16.25,5 L7.75,5.02336051 L7.75,5.04975593 C7.75,7.36948667 9.65278981,9.25 12,9.25 C14.3472102,9.25 16.25,7.36948667 16.25,5.04975593 L16.25,5 Z" id="形状结合" fill="#131415"></path>
    </g>
</svg>