<?xml version="1.0" encoding="UTF-8"?>
<svg width="16px" height="16px" viewBox="0 0 16 16" version="1.1" xmlns="http://www.w3.org/2000/svg" xmlns:xlink="http://www.w3.org/1999/xlink">
    <title>writerin-f</title>
    <g id="Askio-v4" stroke="none" stroke-width="1" fill="none" fill-rule="evenodd">
        <g id="writerin-f" fill-rule="nonzero">
            <rect id="矩形" fill="currentColor" opacity="0" x="0" y="0" width="16" height="16"></rect>
            <path d="M13.3333281,14.6666719 L2.66667187,14.6666719 C1.93332812,14.6666719 1.33332812,14.0666719 1.33332812,13.3333281 L1.33332812,2.66667187 C1.33332812,1.93332812 1.93332812,1.33332812 2.66667187,1.33332812 L13.3333281,1.33332812 C14.0666719,1.33332812 14.6666719,1.93332812 14.6666719,2.66667187 L14.6666719,13.3333281 C14.6666719,14.0666719 14.0666719,14.6666719 13.3333281,14.6666719 Z M8.33332812,10 L7,11.3333281 L12,11.3333281 L12,10 L8.33332812,10 Z M9.46667187,4.33332812 L9.2,4.4 L4,9.66667187 L4,11.3333281 L5.66667188,11.3333281 L10.9333281,6.06667188 C11,6 11,5.93332812 11,5.8 L10.9333281,5.53332812 L9.73332812,4.33332812 C9.66667187,4.4 9.6,4.33332812 9.46667187,4.33332812 Z" id="形状" fill="currentColor"></path>
        </g>
    </g>
</svg>