<?xml version="1.0" encoding="UTF-8"?>
<svg fill="#131415" width="16px" height="16px" viewBox="0 0 16 16" version="1.1"
    xmlns="http://www.w3.org/2000/svg" xmlns:xlink="http://www.w3.org/1999/xlink">
    <title>good</title>
    <g id="Askio-v4" stroke="none" stroke-width="1" fill-rule="evenodd">
        <g id="good" fill-rule="nonzero">
            <rect id="矩形" fill="#000000" opacity="0" x="0" y="0" width="16" height="16"></rect>
            <path
                d="M1.54775,5.6459375 L3.14301563,5.6459375 C3.41801563,5.6459375 3.64301563,5.8709375 3.64301563,6.1459375 L3.64301563,14.5195156 C3.64301563,14.7945156 3.41801563,15.0195156 3.14301563,15.0195156 L1.54775,15.0195156 C1.27275,15.0195156 1.04775,14.7945156 1.04775,14.5195156 L1.04775,6.1459375 C1.04775,5.8709375 1.27275,5.6459375 1.54775,5.6459375 Z M13.89725,5.45520312 L10.4545938,5.45520312 L11.0385156,3.50876562 C11.3629219,1.23792188 9.51798437,0.487625 9.09207813,0.913484375 C8.76767188,1.23792188 8.49134375,1.59828125 8.44326563,1.88673438 C8.275375,2.894 7.6729375,4.24742188 7.04289062,5.45520312 L6.23334375,5.45520312 C5.66454687,5.45520312 5.1991875,5.92059375 5.1991875,6.48935937 L5.1991875,14.15325 C5.1991875,14.7220625 5.6645625,15.1874062 6.23334375,15.1874062 L13.89725,15.1874062 C14.4660469,15.1874062 14.9314063,14.7220469 14.9314063,14.15325 L14.9314063,6.489375 C14.9314063,5.92059375 14.4660469,5.45520312 13.89725,5.45520312 Z"
                id="形状"></path>
        </g>
    </g>
</svg>