<?xml version="1.0" encoding="UTF-8"?>
<svg fill="#131415" width="16px" height="16px" viewBox="0 0 16 16" version="1.1"
    xmlns="http://www.w3.org/2000/svg" xmlns:xlink="http://www.w3.org/1999/xlink">
    <title>bad</title>
    <g id="Askio-v4" stroke="none" stroke-width="1" fill-rule="evenodd">
        <g id="bad" fill-rule="nonzero">
            <rect id="矩形" fill="#000000" opacity="0" x="0" y="0" width="16" height="16"></rect>
            <path
                d="M1.54775,10.5449688 L3.14301562,10.5449688 C3.41801562,10.5449688 3.64301562,10.3199688 3.64301562,10.0449688 L3.64301562,1.67139063 C3.64301562,1.39639063 3.41801562,1.17139063 3.14301562,1.17139063 L1.54775,1.17139063 C1.27275,1.17139063 1.04775,1.39639063 1.04775,1.67139063 L1.04775,10.0449688 C1.04775,10.3199688 1.27275,10.5449688 1.54775,10.5449688 L1.54775,10.5449688 Z M13.89725,10.7357031 L10.4545937,10.7357031 L11.0385156,12.6821406 C11.3629219,14.9529844 9.51798437,15.7032969 9.0920625,15.2774219 C8.76765625,14.9529844 8.49132812,14.592625 8.44325,14.3041719 C8.27535937,13.2969062 7.67292187,11.9434844 7.042875,10.7357031 L6.23332812,10.7357031 C5.66453125,10.7357031 5.19917187,10.2703125 5.19917187,9.70154687 L5.19917187,2.03764062 C5.19917187,1.46882812 5.66454687,1.00348437 6.23332812,1.00348437 L13.8972344,1.00348437 C14.4660312,1.00348437 14.9313906,1.46884375 14.9313906,2.03764062 L14.9313906,9.70153125 C14.9313906,10.2703125 14.4660469,10.7357031 13.89725,10.7357031 L13.89725,10.7357031 Z"
                id="形状"></path>
        </g>
    </g>
</svg>