<?xml version="1.0" encoding="UTF-8"?>
<svg width="228px" height="203px" viewBox="0 0 228 203" version="1.1" xmlns="http://www.w3.org/2000/svg" xmlns:xlink="http://www.w3.org/1999/xlink">
    <title>Icon''</title>
    <g id="landing-page" stroke="none" stroke-width="1" fill="none" fill-rule="evenodd">
        <g id="Icon''" fill="#E65C41">
            <path d="M177.514286,0 C149.671414,0 127.028571,22.761375 127.028571,50.75 C127.028571,78.738625 149.671414,101.5 177.514286,101.5 C186.753171,101.5 195.297879,98.81025 202.757143,94.4330625 L202.757143,126.875 C202.757143,154.863625 180.1143,177.625 152.271429,177.625 L139.65,177.625 L139.65,203 L152.271429,203 C194.035736,203 228,168.857938 228,126.875 L228,50.75 C228,22.761375 205.357157,0 177.514286,0 Z" id="Shape" transform="translate(177.514286, 101.500000) scale(1, -1) translate(-177.514286, -101.500000) "></path>
            <path d="M50.4857143,0 C22.6428429,0 0,22.761375 0,50.75 C0,78.738625 22.6428429,101.5 50.4857143,101.5 C59.7246,101.5 68.2693071,98.81025 75.7285714,94.4330625 L75.7285714,126.875 C75.7285714,154.863625 53.0857286,177.625 25.2428571,177.625 L12.6214286,177.625 L12.6214286,203 L25.2428571,203 C67.0071643,203 100.971429,168.857938 100.971429,126.875 L100.971429,50.75 C100.971429,22.761375 78.3285857,0 50.4857143,0 Z" id="Shape" transform="translate(50.485714, 101.500000) scale(1, -1) translate(-50.485714, -101.500000) "></path>
        </g>
    </g>
</svg>