<?xml version="1.0" encoding="UTF-8"?>
<svg width="32px" height="32px" viewBox="0 0 32 32" version="1.1" xmlns="http://www.w3.org/2000/svg" xmlns:xlink="http://www.w3.org/1999/xlink">
    <title>编组 7</title>
    <g id="landing-page" stroke="none" stroke-width="1" fill="none" fill-rule="evenodd">
        <g id="编组-7">
            <circle id="椭圆形" fill="#738BD8" cx="16" cy="16" r="16"></circle>
            <g id="discord" transform="translate(2.400000, 3.200000)" fill-rule="nonzero">
                <path d="M24.8,19.7994034 C21.7923719,24.9729134 15.6607937,27.4952157 9.85050238,25.9490683 C4.04021109,24.4029209 0,19.1738549 0,13.2 C0,7.22614514 4.04021109,1.99707914 9.85050238,0.450931728 C15.6607937,-1.09521568 21.7923719,1.42708658 24.8,6.60059665 L24.8,19.7994034 Z" id="路径" fill="#738BD8"></path>
                <polygon id="路径" fill="#FFFFFF" points="5.6 7.2 21.6 7.2 21.6 17.6 5.6 17.6"></polygon>
                <path d="M18.1804521,23.2 L5.26114817,21.5547258 C3.86547763,21.3769839 3.93785281,17.0242734 4.06062787,15.6334782 L4.68248114,8.58968368 C4.8052562,7.19888855 6.45856327,5.74059888 7.85217959,5.54764223 L18.9936816,4.00519768 C20.3873457,3.81228843 23.2272713,9.04477414 23.1998022,10.4405934 L22.9925416,20.9891747 M13.7338692,8.22462543 C11.0025541,8.22462543 9.08657052,9.3874606 9.08657052,9.3874606 C10.1362973,8.45720668 11.9707573,7.92127919 11.9707573,7.92127919 L11.7974868,7.74939088 C10.0751486,7.77972551 8.5158576,8.96277586 8.5158576,8.96277586 C6.7629212,12.5928113 6.87501913,15.7273971 6.87501913,15.7273971 C8.30183727,17.557594 10.4216418,17.426136 10.4216418,17.426136 L11.1452503,16.5160973 C9.87130378,16.2430857 9.0661956,15.1207046 9.0661956,15.1207046 C9.0661956,15.1207046 10.9821792,16.414974 13.7338692,16.414974 C16.4855592,16.414974 18.4015427,15.1207046 18.4015427,15.1207046 C18.4015427,15.1207046 17.5964346,16.2430857 16.3224881,16.5160973 L17.0460966,17.426136 C17.0460966,17.426136 19.1659011,17.557594 20.5927192,15.7273971 C20.5927192,15.7273971 20.7048171,12.5928113 18.9518807,8.96277586 C18.9518807,8.96277586 17.3925897,7.77972551 15.6702516,7.74939088 L15.4969811,7.92127919 C15.4969811,7.92127919 17.3314411,8.45720668 18.3811678,9.3874606 C18.3811678,9.3874606 16.4651842,8.22462543 13.7338692,8.22462543 M11.6242402,12.0569075 C12.2866761,12.0569075 12.8268386,12.6332654 12.8166392,13.3410812 C12.8166392,14.0387776 12.2866761,14.6252312 11.6242402,14.6252312 C10.9719798,14.6252312 10.4420406,14.0387776 10.4420406,13.3410812 C10.4420406,12.6332654 10.9618043,12.0569075 11.6242402,12.0569075 M15.8740725,12.0569075 C16.5365084,12.0569075 17.0664715,12.6332654 17.0664715,13.3410812 C17.0664715,14.0387776 16.5365084,14.6252312 15.8740725,14.6252312 C15.2218121,14.6252312 14.6918729,14.0387776 14.6918729,13.3410812 C14.6918729,12.6332654 15.2116366,12.0569075 15.8740725,12.0569075 Z" id="形状" fill="#738BD8"></path>
            </g>
        </g>
    </g>
</svg>