<?xml version="1.0" encoding="UTF-8"?>
<svg width="32px" height="32px" viewBox="0 0 32 32" version="1.1" xmlns="http://www.w3.org/2000/svg" xmlns:xlink="http://www.w3.org/1999/xlink">
    <title>编组 44</title>
    <g id="landing-page" stroke="none" stroke-width="1" fill="none" fill-rule="evenodd">
        <g id="编组-44">
            <g id="编组-7" fill="#111111">
                <circle id="椭圆形" cx="16" cy="16" r="16"></circle>
            </g>
            <g id="抖音" transform="translate(8.000000, 8.000000)" fill-rule="nonzero">
                <rect id="矩形" fill="#000000" opacity="0" x="0" y="0" width="16" height="16"></rect>
                <path d="M14.646875,6.6234375 C13.334375,6.6234375 12.0578125,6.196875 11.0078125,5.4078125 L11.0078125,10.9125 C11.0078125,13.7234375 8.8421875,16 6.1703125,16 C3.4984375,16 1.3328125,13.7234375 1.3328125,10.9125 C1.3328125,8.1015625 3.4984375,5.825 6.1703125,5.825 C6.4375,5.825 6.696875,5.8484375 6.95,5.8921875 L6.95,8.8078125 C6.7078125,8.7125 6.45,8.6640625 6.190625,8.6640625 C4.9984375,8.6640625 4.03125,9.6796875 4.03125,10.934375 C4.03125,12.1875 4.9984375,13.2046875 6.190625,13.2046875 C7.38125,13.2046875 8.3484375,12.1875 8.3484375,10.934375 L8.3484375,0 L11.046875,0 C11.046875,2.1015625 12.6671875,3.8046875 14.665625,3.8046875 L14.665625,6.621875 L14.646875,6.6234375" id="路径" fill="#ECEDF1"></path>
            </g>
        </g>
    </g>
</svg>