<?xml version="1.0" encoding="UTF-8"?>
<svg width="32px" height="32px" viewBox="0 0 32 32" version="1.1" xmlns="http://www.w3.org/2000/svg" xmlns:xlink="http://www.w3.org/1999/xlink">
    <title>钉钉</title>
    <g id="landing-page" stroke="none" stroke-width="1" fill="none" fill-rule="evenodd">
        <g id="钉钉" fill-rule="nonzero">
            <rect id="矩形" fill="#000000" opacity="0" x="0" y="0" width="32" height="32"></rect>
            <path d="M16.0001109,0 C7.16323326,0 0,7.16323326 0,16.0001109 C0,24.8367667 7.16323326,32 16.0001109,32 C24.8367667,32 32,24.8367667 32,16.0001109 C32,7.16323326 24.8367667,0 16.0001109,0 Z M23.3931824,13.8573303 C23.3611455,13.9964157 23.2780046,14.2027159 23.1628268,14.4489977 L23.1660416,14.4489977 L23.1532194,14.4729423 C22.4813303,15.9088776 20.7280554,18.7263557 20.7280554,18.7263557 L20.7201109,18.7071409 L20.2081109,19.5994088 L22.6764711,19.5994088 L17.9607575,25.8660508 L19.0324249,21.60303 L17.0888499,21.60303 L17.7639538,18.784 C17.2185497,18.9151778 16.572157,19.0957229 15.8075566,19.3419677 C15.8075566,19.3419677 14.7741339,19.9464942 12.8290069,18.1779954 C12.8290069,18.1779954 11.5171917,17.0217829 12.2787621,16.7340046 C12.6018661,16.6109561 13.8479446,16.4541709 14.8285635,16.32303 C16.1562309,16.144 16.9704573,16.0480739 16.9704573,16.0480739 C16.9704573,16.0480739 12.8833626,16.1087852 11.9139769,15.9568776 C10.9444804,15.8050069 9.7144388,14.1867159 9.45204619,12.7651178 C9.45204619,12.7651178 9.0473164,11.9848129 10.3239169,12.3541432 C11.6004804,12.7236582 16.8841016,13.7934042 16.8841016,13.7934042 C16.8841016,13.7934042 10.0135982,11.6874642 9.55440185,11.1724711 C9.09690531,10.6608406 8.2091455,8.36777829 8.32432333,6.96070208 C8.32432333,6.96070208 8.37394919,6.60888684 8.73548268,6.70477598 C8.73548268,6.70477598 13.8159446,9.02348268 17.2888314,10.2946882 C20.7633072,11.5659307 23.7834273,12.2119169 23.3932194,13.8573303 L23.3931824,13.8573303 Z" id="形状" fill="#3AA2EB"></path>
        </g>
    </g>
</svg>