<?xml version="1.0" encoding="UTF-8"?>
<svg width="32px" height="32px" viewBox="0 0 32 32" version="1.1" xmlns="http://www.w3.org/2000/svg" xmlns:xlink="http://www.w3.org/1999/xlink">
    <title>微信</title>
    <g id="landing-page" stroke="none" stroke-width="1" fill="none" fill-rule="evenodd">
        <g id="微信" fill-rule="nonzero">
            <rect id="矩形" fill="#000000" opacity="0" x="0" y="0" width="32" height="32"></rect>
            <path d="M31.2,19.8586087 C31.2,15.5274785 26.8682439,12 22.0061313,12 C16.8558481,12 12.8,15.5305459 12.8,19.8586087 C12.8,24.1958737 16.8558481,27.7172175 22.0061313,27.7172175 C23.0852383,27.7172175 24.1735422,27.4442213 25.2557148,27.1742925 L28.2232589,28.8 L27.4077974,26.0945773 C29.5813396,24.4627351 31.2,22.3002374 31.2,19.8586087 Z M19.1581473,18.6561986 C18.4806398,18.6561986 17.9318894,18.1071389 17.9318894,17.4292496 C17.9318894,16.7513602 18.4806398,16.2023005 19.1581473,16.2023005 C19.8356548,16.2023005 20.3844052,16.7513602 20.3844052,17.4292496 C20.3844052,18.1040716 19.8356548,18.6561986 19.1581473,18.6561986 Z M25.1146951,18.6469965 C24.4371876,18.6469965 23.8884372,18.0979368 23.8884372,17.4200475 C23.8884372,16.7421581 24.4371876,16.1930984 25.1146951,16.1930984 C25.7922026,16.1930984 26.340953,16.7421581 26.340953,17.4200475 C26.340953,18.0979368 25.7922026,18.6469965 25.1146951,18.6469965 Z" id="形状" fill="#00C800"></path>
            <path d="M11.1494784,3.2 C5.02058077,3.2 0,7.3029617 0,12.5130718 C0,15.5212901 1.67036933,17.9898899 4.46168593,19.9064661 L3.34705385,23.2 L7.24352974,21.2803225 C8.63918805,21.5501318 9.75697773,21.8292448 11.1494784,21.8292448 C11.4999718,21.8292448 11.8473076,21.8137386 12.1914858,21.7858273 C11.9736115,21.0539308 11.8473076,20.2879206 11.8473076,19.4908978 C11.8473076,14.7056598 16.0311249,10.8228873 21.3264167,10.8228873 C21.6895405,10.8228873 22.046349,10.8476973 22.4,10.8880136 C21.433775,6.4780276 16.6310685,3.2 11.1494784,3.2 Z M7.40456724,10.7143433 C6.56780378,10.7143433 5.88892021,10.0475733 5.88892021,9.22574042 C5.88892021,8.40390758 6.56780378,7.73713754 7.40456724,7.73713754 C8.2413307,7.73713754 8.92021427,8.40390758 8.92021427,9.22574042 C8.92021427,10.0475733 8.2413307,10.7143433 7.40456724,10.7143433 Z M15.1912038,10.7143433 C14.3544404,10.7143433 13.6755568,10.0475733 13.6755568,9.22574042 C13.6755568,8.40390758 14.3544404,7.73713754 15.1912038,7.73713754 C16.0279673,7.73713754 16.7068509,8.40390758 16.7068509,9.22574042 C16.7068509,10.0475733 16.0279673,10.7143433 15.1912038,10.7143433 Z" id="形状" fill="#00C800"></path>
        </g>
    </g>
</svg>