<?xml version="1.0" encoding="UTF-8"?>
<svg width="32px" height="32px" viewBox="0 0 32 32" version="1.1" xmlns="http://www.w3.org/2000/svg" xmlns:xlink="http://www.w3.org/1999/xlink">
    <title>企业微信01</title>
    <g id="landing-page" stroke="none" stroke-width="1" fill="none" fill-rule="evenodd">
        <g id="企业微信01" fill-rule="nonzero">
            <rect id="矩形" fill="#000000" opacity="0" x="0" y="0" width="32" height="32"></rect>
            <path d="M16,0.0625 C24.803125,0.0625 31.9375,7.196875 31.9375,16 C31.9375,24.803125 24.803125,31.9375 16,31.9375 C7.196875,31.9375 0.0625,24.803125 0.0625,16 C0.0625,7.196875 7.196875,0.0625 16,0.0625 Z M20.99375,21.321875 C20.86875,21.44375 20.86875,21.640625 20.9875,21.7625 C21,21.778125 21.015625,21.790625 21.034375,21.8 C21.725,22.4375 22.171875,23.296875 22.296875,24.228125 C22.490625,24.928125 23.225,25.34375 23.934375,25.15 C24.6375,24.965625 25.05625,24.246875 24.871875,23.546875 C24.871875,23.54375 24.86875,23.540625 24.86875,23.534375 C24.721875,23.009375 24.265625,22.625 23.721875,22.571875 C22.846875,22.4125 22.05,21.971875 21.446875,21.31875 C21.31875,21.2 21.11875,21.2 20.99375,21.321875 L20.99375,21.321875 Z M13.940625,6.228125 C11.553125,6.4875 9.384375,7.496875 7.828125,9.071875 C7.221875,9.678125 6.71875,10.378125 6.334375,11.14375 C5.15625,13.484375 5.353125,16.28125 6.85,18.43125 C7.271875,19.0625 7.96875,19.85 8.603125,20.409375 L8.315625,22.6375 L8.284375,22.73125 C8.275,22.759375 8.275,22.790625 8.271875,22.81875 L8.265625,22.890625 L8.271875,22.9625 C8.309375,23.359375 8.6625,23.65 9.059375,23.615625 C9.16875,23.60625 9.271875,23.571875 9.365625,23.51875 L9.378125,23.51875 L9.421875,23.4875 L10.109375,23.15 L12.15625,22.134375 C13.128125,22.409375 14.1375,22.546875 15.15,22.540625 C16.4,22.54375 17.64375,22.33125 18.821875,21.909375 C18.234375,21.721875 17.85625,21.15 17.915625,20.534375 C16.696875,20.921875 15.409375,21.046875 14.140625,20.90625 L13.9375,20.878125 C13.478125,20.81875 13.025,20.725 12.58125,20.6 C12.3375,20.525 12.078125,20.553125 11.853125,20.675 L11.796875,20.703125 L10.1125,21.68125 L10.040625,21.725 C10,21.746875 9.98125,21.75625 9.959375,21.75625 C9.896875,21.753125 9.85,21.7 9.853125,21.6375 L9.915625,21.38125 L9.990625,21.103125 L10.1125,20.64375 L10.253125,20.13125 C10.346875,19.84375 10.24375,19.53125 9.996875,19.35625 C9.3375,18.871875 8.7625,18.28125 8.296875,17.60625 C7.1125,15.9125 6.953125,13.70625 7.88125,11.8625 C8.190625,11.253125 8.596875,10.69375 9.08125,10.209375 C10.359375,8.909375 12.153125,8.08125 14.140625,7.86875 C14.828125,7.79375 15.521875,7.79375 16.209375,7.86875 C18.184375,8.09375 19.971875,8.93125 21.24375,10.225 C21.725,10.715625 22.125,11.275 22.428125,11.8875 C22.81875,12.6625 23.021875,13.521875 23.025,14.390625 C23.025,14.48125 23.015625,14.571875 23.0125,14.659375 C23.5375,14.340625 24.2125,14.41875 24.65,14.85 L24.709375,14.921875 C24.8125,13.634375 24.559375,12.34375 23.98125,11.1875 C23.603125,10.421875 23.103125,9.725 22.503125,9.115625 C20.8625,7.490625 18.709375,6.48125 16.4125,6.25 C15.5875,6.14375 14.759375,6.140625 13.940625,6.228125 L13.940625,6.228125 Z M27.009375,18.896875 C26.784375,18.95625 26.578125,19.075 26.409375,19.240625 L26.40625,19.240625 C26.190625,19.453125 26.05625,19.73125 26.025,20.03125 C25.8625,20.9 25.415625,21.690625 24.759375,22.28125 C24.634375,22.4 24.63125,22.596875 24.75,22.721875 L24.753125,22.725 C24.878125,22.85 25.08125,22.853125 25.209375,22.728125 C25.225,22.7125 25.2375,22.7 25.246875,22.68125 C25.9,21.996875 26.76875,21.55625 27.70625,21.4375 C28.41875,21.246875 28.8375,20.525 28.646875,19.825 C28.453125,19.121875 27.721875,18.70625 27.009375,18.896875 L27.009375,18.896875 Z M21.996875,17.584375 L21.975,17.60625 C21.321875,18.315625 20.4375,18.771875 19.478125,18.89375 C18.771875,19.078125 18.346875,19.790625 18.534375,20.490625 C18.59375,20.71875 18.71875,20.928125 18.8875,21.09375 C19.409375,21.60625 20.253125,21.60625 20.775,21.090625 C20.9875,20.878125 21.121875,20.6 21.15625,20.303125 C21.321875,19.434375 21.76875,18.64375 22.428125,18.053125 C22.55625,17.9375 22.56875,17.740625 22.45625,17.6125 L22.453125,17.609375 C22.328125,17.478125 22.128125,17.46875 21.996875,17.584375 L21.996875,17.584375 Z M23.234375,15.190625 C23.0125,15.25 22.809375,15.36875 22.65,15.528125 C22.1375,16.034375 22.13125,16.859375 22.6375,17.371875 L22.653125,17.3875 C22.86875,17.6 23.15,17.73125 23.45,17.765625 C24.325,17.925 25.125,18.3625 25.728125,19.0125 C25.853125,19.1375 26.053125,19.1375 26.178125,19.015625 C26.303125,18.896875 26.30625,18.7 26.1875,18.575 C26.171875,18.559375 26.153125,18.54375 26.134375,18.53125 C25.44375,17.89375 24.996875,17.0375 24.871875,16.10625 C24.68125,15.40625 23.946875,14.996875 23.234375,15.190625 L23.234375,15.190625 Z" id="形状" fill="#0082EF"></path>
        </g>
    </g>
</svg>