<?xml version="1.0" encoding="UTF-8"?>
<svg width="64px" height="63px" viewBox="0 0 64 63" version="1.1" xmlns="http://www.w3.org/2000/svg" xmlns:xlink="http://www.w3.org/1999/xlink">
    <title>Icon''</title>
    <g id="landing-page" stroke="none" stroke-width="1" fill="none" fill-rule="evenodd">
        <g id="Icon''" fill="#E7E7E8">
            <path d="M49.1995956,0.0636010152 C41.5154264,0.0636010152 35.2663786,7.0273661 35.2663786,15.5903905 C35.2663786,24.1534149 41.5154264,31.11718 49.1995956,31.11718 C51.7493743,31.11718 54.1075712,30.2942601 56.166204,28.9550745 L56.166204,38.8805747 C56.166204,47.4435991 49.9171562,54.4073642 42.2329871,54.4073642 L38.7496828,54.4073642 L38.7496828,62.1707589 L42.2329871,62.1707589 C53.7592408,62.1707589 63.1328125,51.7251113 63.1328125,38.8805747 L63.1328125,15.5903905 C63.1328125,7.0273661 56.8837647,0.0636010152 49.1995956,0.0636010152 Z" id="Shape"></path>
            <path d="M13.9332169,0.0636010152 C6.2490478,0.0636010152 0,7.0273661 0,15.5903905 C0,24.1534149 6.2490478,31.11718 13.9332169,31.11718 C16.4829956,31.11718 18.8411926,30.2942601 20.8998254,28.9550745 L20.8998254,38.8805747 C20.8998254,47.4435991 14.6507776,54.4073642 6.96660847,54.4073642 L3.48330424,54.4073642 L3.48330424,62.1707589 L6.96660847,62.1707589 C18.4928622,62.1707589 27.8664339,51.7251113 27.8664339,38.8805747 L27.8664339,15.5903905 C27.8664339,7.0273661 21.6173861,0.0636010152 13.9332169,0.0636010152 Z" id="Shape"></path>
        </g>
    </g>
</svg>