<?xml version="1.0" encoding="UTF-8"?>
<svg width="40px" height="41px" viewBox="0 0 40 41" version="1.1" xmlns="http://www.w3.org/2000/svg" xmlns:xlink="http://www.w3.org/1999/xlink">
    <title>database</title>
    <g id="landing-page" stroke="none" stroke-width="1" fill="none" fill-rule="evenodd">
        <g id="database" transform="translate(0.000000, 0.241565)" fill-rule="nonzero">
            <rect id="矩形" fill="#000000" opacity="0" x="0" y="0" width="40" height="40"></rect>
            <path d="M32.5,2.5 L7.5,2.5 C6.80859375,2.5 6.25,3.05859375 6.25,3.75 L6.25,36.25 C6.25,36.9414062 6.80859375,37.5 7.5,37.5 L32.5,37.5 C33.1914062,37.5 33.75,36.9414062 33.75,36.25 L33.75,3.75 C33.75,3.05859375 33.1914062,2.5 32.5,2.5 Z M9.0625,5.3125 L30.9375,5.3125 L30.9375,13.4375 L9.0625,13.4375 L9.0625,5.3125 Z M30.9375,24.0625 L9.0625,24.0625 L9.0625,15.9375 L30.9375,15.9375 L30.9375,24.0625 Z M30.9375,34.6875 L9.0625,34.6875 L9.0625,26.5625 L30.9375,26.5625 L30.9375,34.6875 Z M11.875,9.375 C11.2430277,9.375 10.6732835,9.7556909 10.4314382,10.3395571 C10.1895929,10.9234234 10.3232738,11.5954825 10.7701457,12.0423543 C11.2170175,12.4892262 11.8890766,12.6229071 12.4729429,12.3810618 C13.0568091,12.1392165 13.4375,11.5694723 13.4375,10.9375 L11.875,9.375 Z M11.875,20 C11.2430277,20 10.6732835,20.3806909 10.4314382,20.9645571 C10.1895929,21.5484234 10.3232738,22.2204825 10.7701457,22.6673543 C11.2170175,23.1142262 11.8890766,23.2479071 12.4729429,23.0060618 C13.0568091,22.7642165 13.4375,22.1944723 13.4375,21.5625 L11.875,20 Z M11.875,30.625 C11.2430277,30.625 10.6732835,31.0056909 10.4314382,31.5895571 C10.1895929,32.1734234 10.3232738,32.8454825 10.7701457,33.2923543 C11.2170175,33.7392262 11.8890766,33.8729071 12.4729429,33.6310618 C13.0568091,33.3892165 13.4375,32.8194723 13.4375,32.1875 L11.875,30.625 Z" id="形状" fill="#E65C41"></path>
        </g>
    </g>
</svg>