<?xml version="1.0" encoding="UTF-8"?>
<svg width="40px" height="41px" viewBox="0 0 40 41" version="1.1" xmlns="http://www.w3.org/2000/svg" xmlns:xlink="http://www.w3.org/1999/xlink">
    <title>Desktop-Security</title>
    <g id="landing-page" stroke="none" stroke-width="1" fill="none" fill-rule="evenodd">
        <g id="Desktop-Security" transform="translate(0.000000, 0.241565)" fill-rule="nonzero">
            <rect id="矩形" fill="#000000" opacity="0" x="0" y="0" width="40" height="40"></rect>
            <path d="M39.3333203,26.6666797 L39.3333203,4.66667969 C39.3333203,2.4 37.4666797,0.666679688 35.3333203,0.666679688 L4.66667969,0.666679688 C2.4,0.666679688 0.666679687,2.53332031 0.666679687,4.66667969 L0.666679687,28.6666797 C0.666679687,30.9333203 2.53332031,32.6666797 4.66667969,32.6666797 L18,32.6666797 L18,35.3333203 L10.6666797,35.3333203 C8.8,35.3333203 7.33332031,36.8 7.33332031,38.6666797 C7.33332031,39.0666797 7.6,39.3333203 8,39.3333203 L32,39.3333203 C32.4,39.3333203 32.6666797,39.0666797 32.6666797,38.6666797 L32.6666797,38.4 C32.5333203,36.6666797 31.0666797,35.3333203 29.3333203,35.3333203 L22,35.3333203 L22,32.6666797 L35.3333203,32.6666797 C37.6,32.6666797 39.3333203,30.8 39.3333203,28.6666797 L39.3333203,26.6666797 Z M2,4.66667969 C2,3.2 3.2,2 4.66667969,2 L35.2,2 C36.6666797,2 37.8666797,3.2 37.8666797,4.66667969 L37.8666797,26 L1.86667969,26 L1.86667969,4.66667969 L2,4.66667969 Z M34.6666797,30 C34.2666797,30 34,29.7333203 34,29.3333203 C34,28.9333203 34.2666797,28.6666797 34.6666797,28.6666797 C35.0666797,28.6666797 35.3333203,28.9333203 35.3333203,29.3333203 C35.3333203,29.7333203 35.0666797,30 34.6666797,30 Z" id="形状" fill="#E65C41"></path>
            <path d="M26.9333203,8.66667969 L20.2666797,6 L19.7333203,6 L13.0666797,8.66667969 C12.8,8.8 12.6666797,9.06667969 12.6666797,9.33332031 L12.6666797,18.6666797 C12.6666797,21.2 18.5333203,24 19.7333203,24.6666797 L20.2666797,24.6666797 C21.4666797,24.1333203 27.3333203,21.2 27.3333203,18.6666797 L27.3333203,9.33332031 C27.3333203,9.06667969 27.2,8.8 26.9333203,8.66667969 L26.9333203,8.66667969 Z M23.3333203,17.3333203 C23.3333203,17.4666797 23.2,17.7333203 23.0666797,17.8666797 L22.8,18.1333203 C22.2666797,18.6666797 21.6,19.3333203 20.2666797,20 L20,20 C19.8666797,20 19.7333203,20 19.6,19.8666797 C19.4666797,19.7333203 19.3333203,19.4666797 19.3333203,19.3333203 L19.3333203,15.3333203 L17.3333203,15.3333203 C16.9333203,15.3333203 16.6666797,15.0666797 16.6666797,14.6666797 L16.6666797,11.3333203 C16.6666797,11.0666797 16.8,10.8 17.0666797,10.8 L19.7333203,9.46667969 C20,9.33332031 20.1333203,9.33332031 20.4,9.46667969 C20.5333203,9.6 20.6666797,9.86667969 20.6666797,10 L20.6666797,14 L22.6666797,14 C23.0666797,14 23.3333203,14.2666797 23.3333203,14.6666797 L23.3333203,17.3333203 Z" id="形状" fill="#E65C41"></path>
        </g>
    </g>
</svg>