<?xml version="1.0" encoding="UTF-8"?>
<svg width="40px" height="41px" viewBox="0 0 40 41" version="1.1" xmlns="http://www.w3.org/2000/svg" xmlns:xlink="http://www.w3.org/1999/xlink">
    <title>弹性计算</title>
    <g id="landing-page" stroke="none" stroke-width="1" fill="none" fill-rule="evenodd">
        <g id="弹性计算" transform="translate(0.000000, 0.241565)" fill-rule="nonzero">
            <rect id="矩形" fill="#000000" opacity="0" x="0" y="0" width="40" height="40"></rect>
            <path d="M31.7262356,7.95238631 C28.530268,3.56051348 22.3380806,2.56236056 17.7438772,5.95608047 C15.3469014,7.75275572 13.7489176,10.7472145 13.7489176,13.9413038 L13.7489176,15.9376096 L11.3519419,15.9376096 C10.353202,15.9376096 8.15597424,16.736132 7.5567303,17.1353931 C7.15723435,17.3350237 6.75773839,17.7342849 6.55799042,17.9339155 C3.76151873,20.3294825 2.96252682,24.7213553 4.96000659,28.1150752 C6.75773839,31.1095339 10.55295,32.7065786 13.9486656,31.7084257 L13.9486656,35.9006679 C7.35698233,37.0984514 1.16479502,32.7065786 0.16605513,26.1187694 C-0.832684758,20.1298519 2.76277884,14.340565 8.55547019,12.5438897 C8.95496615,12.3442591 9.3544621,12.1446285 9.95370604,11.944998 C10.9524459,4.35903581 18.1433731,-1.03098993 25.7337963,0.166793565 C29.5290078,0.765685315 32.9247235,2.76199115 35.1219512,5.95608047 L31.7262356,7.95238631 Z" id="路径" fill="#E65C41"></path>
            <path d="M37.9512195,40 L21.5609756,40 C20.3317073,40 19.5121951,39.1894934 19.5121951,37.9737336 L19.5121951,15.684803 C19.5121951,14.4690432 20.3317073,13.6585366 21.5609756,13.6585366 L37.9512195,13.6585366 C39.1804878,13.6585366 40,14.4690432 40,15.684803 L40,37.9737336 C40,39.1894934 39.1804878,40 37.9512195,40 Z M35.902439,19.7373358 C35.902439,18.521576 35.0829268,17.7110694 33.8536585,17.7110694 L25.6585366,17.7110694 C24.4292683,17.7110694 23.6097561,18.521576 23.6097561,19.7373358 L23.6097561,27.8424015 L35.902439,27.8424015 L35.902439,19.7373358 Z M35.902439,31.8949343 L23.6097561,31.8949343 L23.6097561,33.9212008 C23.6097561,35.1369606 24.4292683,35.9474672 25.6585366,35.9474672 L33.8536585,35.9474672 C35.0829268,35.9474672 35.902439,35.1369606 35.902439,33.9212008 L35.902439,31.8949343 L35.902439,31.8949343 Z M29.7560976,21.7636023 C30.9853659,21.7636023 31.804878,22.5741088 31.804878,23.7898687 C31.804878,25.0056285 30.9853659,25.8161351 29.7560976,25.8161351 C28.5268293,25.8161351 27.7073171,25.0056285 27.7073171,23.7898687 C27.7073171,22.5741088 28.5268293,21.7636023 29.7560976,21.7636023 Z" id="形状" fill="#E65C41"></path>
        </g>
    </g>
</svg>