<?xml version="1.0" encoding="UTF-8"?>
<svg width="960px" height="245px" viewBox="0 0 960 245" version="1.1" xmlns="http://www.w3.org/2000/svg" xmlns:xlink="http://www.w3.org/1999/xlink">
    <title>编组 23</title>
    <g id="landing-page" stroke="none" stroke-width="1" fill="none" fill-rule="evenodd" opacity="0.05">
        <g id="编组-23" fill-rule="nonzero">
            <g id="编组-3" transform="translate(286.254545, 0.000000)">
                <path d="M84.9454545,127.069091 L84.9454545,174.213242 C84.9454545,181.589124 82.8336387,188.45906 79.1963919,194.221568 C67.5323257,223.630601 39.3937296,244.363636 6.53426573,244.363636 L0,244.360285 L0,226.927961 C14.9177885,226.927961 28.4619393,220.895241 38.4402976,211.078419 L0,211.077346 L0,127.069091 L84.9454545,127.069091 Z" id="形状结合" fill="#000000"></path>
                <path d="M84.9454545,0 L84.9454545,47.1441513 C84.9454545,54.5200328 82.8336387,61.3899693 79.1963919,67.1524776 C67.5323257,96.5615097 39.3937296,117.294545 6.53426573,117.294545 L0,117.291194 L0,99.8588698 C14.9177885,99.8588698 28.4619393,93.82615 38.4402976,84.0093278 L0,84.0082554 L0,0 L84.9454545,0 Z" id="形状结合" fill="#E65C41" transform="translate(42.472727, 58.647273) rotate(180.000000) translate(-42.472727, -58.647273) "></path>
            </g>
            <g id="编组-2" transform="translate(665.600000, 0.000000)">
                <rect id="矩形" fill="#000000" x="0" y="85.1781818" width="75.6363636" height="159.185455"></rect>
                <rect id="矩形" fill="#000000" x="33.6161616" y="34.9090909" width="8.4040404" height="117.294545"></rect>
                <ellipse id="椭圆形" fill="#030404" cx="36.4175084" cy="20.9454545" rx="21.010101" ry="20.9454545"></ellipse>
                <ellipse id="椭圆形" fill="#E65C41" cx="33.6161616" cy="16.7563636" rx="8.4040404" ry="8.37818182"></ellipse>
            </g>
            <g id="编组-4" transform="translate(421.236364, 0.000000)" fill="#000000">
                <rect id="矩形" x="0" y="0" width="75.4036364" height="244.363636"></rect>
                <polygon id="矩形" points="117.796322 51.6654545 198.184642 51.6654545 147.704679 122.529898 209.454545 244.363636 129.066225 244.363636 74.0153852 148.826175 74.0072727 112.696737"></polygon>
            </g>
            <g id="形状结合-2" transform="translate(776.145455, 60.509091)" fill="#000000">
                <path d="M91.9272727,0 C142.697304,0 183.854545,41.1572419 183.854545,91.9272727 C183.854545,142.697304 142.697304,183.854545 91.9272727,183.854545 C41.1572419,183.854545 0,142.697304 0,91.9272727 C0,41.1572419 41.1572419,0 91.9272727,0 Z M133.712397,100.284298 L58.4991736,100.513973 L58.4991736,100.773487 L58.4991736,100.773487 C58.4991736,123.580602 75.3362271,142.069421 96.1057851,142.069421 C116.875343,142.069421 133.712397,123.580602 133.712397,100.773487 L133.712397,100.284298 L133.712397,100.284298 Z" id="形状结合"></path>
            </g>
            <g id="编组" transform="translate(0.000000, 8.145455)" fill="#030404">
                <path d="M126.254545,0 L252.509091,236.218182 L0,236.218182 L126.254545,0 Z M130.46303,84.3636364 C104.895928,84.3636364 84.169697,105.137624 84.169697,130.763636 C84.169697,156.389649 104.895928,177.163636 130.46303,177.163636 C156.030132,177.163636 176.756364,156.389649 176.756364,130.763636 C176.756364,105.137624 156.030132,84.3636364 130.46303,84.3636364 Z" id="形状结合"></path>
                <ellipse id="椭圆形" cx="151.365947" cy="134.88198" rx="16.0433953" ry="16.0740183"></ellipse>
            </g>
        </g>
    </g>
</svg>